<svg width="512" height="512" viewBox="0 0 512 512" fill="none" xmlns="http://www.w3.org/2000/svg">
<path d="M409.6 0H102.4C45.846 0 0 45.846 0 102.4V409.6C0 466.154 45.846 512 102.4 512H409.6C466.154 512 512 466.154 512 409.6V102.4C512 45.846 466.154 0 409.6 0Z" fill="black"/>
<path d="M256 26L461 141V371L256 486L51 371V141L256 26Z" stroke="#3B82F6" stroke-opacity="0.3" stroke-width="6"/>
<path d="M256 61L425 158.5V353.5L256 451L87 353.5V158.5L256 61Z" stroke="#3B82F6" stroke-width="11" stroke-linecap="round" stroke-linejoin="round"/>
<path d="M114.32 298.336L150.445 293.953C151.596 303.161 154.695 310.201 159.742 315.07C164.789 319.94 170.898 322.375 178.07 322.375C185.773 322.375 192.237 319.453 197.461 313.609C202.773 307.766 205.43 299.885 205.43 289.969C205.43 280.583 202.906 273.146 197.859 267.656C192.812 262.167 186.659 259.422 179.398 259.422C174.617 259.422 168.906 260.352 162.266 262.211L166.383 231.797C176.477 232.062 184.18 229.893 189.492 225.289C194.805 220.596 197.461 214.398 197.461 206.695C197.461 200.143 195.513 194.919 191.617 191.023C187.721 187.128 182.542 185.18 176.078 185.18C169.703 185.18 164.258 187.393 159.742 191.82C155.227 196.247 152.482 202.711 151.508 211.211L117.109 205.367C119.5 193.591 123.086 184.206 127.867 177.211C132.737 170.128 139.466 164.594 148.055 160.609C156.732 156.536 166.427 154.5 177.141 154.5C195.469 154.5 210.167 160.344 221.234 172.031C230.354 181.594 234.914 192.396 234.914 204.438C234.914 221.526 225.573 235.161 206.891 245.344C218.047 247.734 226.945 253.091 233.586 261.414C240.315 269.737 243.68 279.786 243.68 291.562C243.68 308.651 237.438 323.216 224.953 335.258C212.469 347.299 196.93 353.32 178.336 353.32C160.716 353.32 146.107 348.273 134.508 338.18C122.909 327.997 116.18 314.716 114.32 298.336ZM267.055 192.617V157.953H394.688V185.047C384.151 195.406 373.438 210.281 362.547 229.672C351.656 249.062 343.333 269.693 337.578 291.562C331.911 313.344 329.122 332.823 329.211 350H293.219C293.839 323.083 299.372 295.635 309.82 267.656C320.357 239.677 334.391 214.664 351.922 192.617H267.055Z" fill="white"/>
</svg>
